<svg viewBox="0 0 142.5323 180" xmlns="http://www.w3.org/2000/svg" xmlns:xlink="http://www.w3.org/1999/xlink"><linearGradient id="a" gradientUnits="userSpaceOnUse" x1="71.2662" x2="71.2662" y1="180"><stop offset="0" stop-color="#3300fc"/><stop offset="1" stop-color="#eb0000"/></linearGradient><path d="m60.8532 173.0248-.1989 1.0451h-2.3012l-1.1284 5.9301h-1.136l1.1284-5.93h-2.3127l.1989-1.0451zm8.512 0-1.3272 6.9752h-1.136l.9292-4.8833-2.8319 3.3091h-.6784l-1.5709-3.3188-.9309 4.893h-1.1361l1.3273-6.9752h1.0257l1.8915 3.9955 3.41-3.9955zm1.8356-130.6913 7.2854-38.3451h-45.0102l-33.476 176.0116h51.1166l13.8029-72.5717c8.1386-42.7937 32.6905-59.9183 67.6305-54.6283l9.9823-52.5a70.8107 70.8107 0 0 0 -71.3315 42.0335z" fill="url(#a)"/></svg>
